<svg width="22" height="20" viewBox="0 0 22 20" fill="none" xmlns="http://www.w3.org/2000/svg">
<path d="M21 12H20C20 8.13001 16.87 5.00001 13 5.00001H12V3.73001C12.3041 3.55443 12.5566 3.30187 12.7322 2.99773C12.9077 2.6936 13.0001 2.3486 13 1.99744C12.9999 1.64628 12.9074 1.30134 12.7317 0.997289C12.556 0.693243 12.3033 0.440816 11.9991 0.265392C11.6949 0.0899678 11.3499 -0.00226933 10.9987 -0.00204427C10.6476 -0.0018192 10.3026 0.0908602 9.99867 0.266674C9.69469 0.442488 9.44236 0.695238 9.26705 0.999509C9.09174 1.30378 8.99964 1.64885 9 2.00001C9 2.74001 9.4 3.39001 10 3.73001V5.00001H9C5.13 5.00001 2 8.13001 2 12H1C0.45 12 0 12.45 0 13V16C0 16.55 0.45 17 1 17H2V18C2 18.5304 2.21071 19.0391 2.58579 19.4142C2.96086 19.7893 3.46957 20 4 20H18C19.11 20 20 19.11 20 18V17H21C21.55 17 22 16.55 22 16V13C22 12.45 21.55 12 21 12ZM8.79 14.5C8.4 13.62 7.53 13 6.5 13C5.47 13 4.6 13.62 4.21 14.5C4.08 14.19 4 13.86 4 13.5C4 12.837 4.26339 12.2011 4.73223 11.7322C5.20107 11.2634 5.83696 11 6.5 11C7.16304 11 7.79893 11.2634 8.26777 11.7322C8.73661 12.2011 9 12.837 9 13.5C9 13.86 8.92 14.19 8.79 14.5ZM17.79 14.5C17.4 13.62 16.5 13 15.5 13C14.5 13 13.6 13.62 13.21 14.5C13.08 14.19 13 13.86 13 13.5C13 12.837 13.2634 12.2011 13.7322 11.7322C14.2011 11.2634 14.837 11 15.5 11C16.163 11 16.7989 11.2634 17.2678 11.7322C17.7366 12.2011 18 12.837 18 13.5C18 13.86 17.92 14.19 17.79 14.5Z" fill="white"/>
</svg>
