<svg width="27" height="27" viewBox="0 0 27 27" fill="none" xmlns="http://www.w3.org/2000/svg">
<path d="M0.214277 13.5C0.214277 6.16297 6.16296 0.214294 13.5 0.214294C20.837 0.214294 26.7857 6.16297 26.7857 13.5C26.7857 20.837 20.837 26.7857 13.5 26.7857C11.3235 26.7888 9.17982 26.2549 7.25903 25.2313L1.97796 26.7337C1.74089 26.801 1.49014 26.8038 1.25162 26.7418C1.0131 26.6798 0.795463 26.5553 0.621199 26.381C0.446935 26.2068 0.322366 25.9891 0.260366 25.7506C0.198366 25.5121 0.201184 25.2613 0.268528 25.0243L1.76981 19.7432C0.745472 17.8218 0.211161 15.6774 0.214277 13.5ZM8.51785 11.0089C8.51785 11.4673 8.88985 11.8393 9.34821 11.8393H17.6518C17.872 11.8393 18.0832 11.7518 18.2389 11.5961C18.3947 11.4404 18.4821 11.2292 18.4821 11.0089C18.4821 10.7887 18.3947 10.5775 18.2389 10.4218C18.0832 10.2661 17.872 10.1786 17.6518 10.1786H9.34821C9.12798 10.1786 8.91678 10.2661 8.76106 10.4218C8.60533 10.5775 8.51785 10.7887 8.51785 11.0089ZM9.34821 15.1607C9.12798 15.1607 8.91678 15.2482 8.76106 15.4039C8.60533 15.5597 8.51785 15.7709 8.51785 15.9911C8.51785 16.2113 8.60533 16.4225 8.76106 16.5782C8.91678 16.734 9.12798 16.8214 9.34821 16.8214H14.3303C14.5506 16.8214 14.7618 16.734 14.9175 16.5782C15.0732 16.4225 15.1607 16.2113 15.1607 15.9911C15.1607 15.7709 15.0732 15.5597 14.9175 15.4039C14.7618 15.2482 14.5506 15.1607 14.3303 15.1607H9.34821Z" fill="black"/>
</svg>
