<svg width="23" height="22" viewBox="0 0 23 22" fill="none" xmlns="http://www.w3.org/2000/svg">
<path d="M14.145 2.02851L4.37863 11.855C2.95982 13.283 2.74994 15.6305 4.09257 17.129C5.45963 18.6605 7.80131 18.788 9.32506 17.414C9.37394 17.369 9.42186 17.323 9.46881 17.276L17.5979 9.09801C17.6666 9.03017 17.7213 8.94842 17.7587 8.85777C17.7961 8.76711 17.8153 8.66946 17.8153 8.57076C17.8153 8.47207 17.7961 8.37441 17.7587 8.28376C17.7213 8.19311 17.6666 8.11136 17.5979 8.04351C17.4564 7.90362 17.2688 7.82565 17.0739 7.82565C16.879 7.82565 16.6915 7.90362 16.5499 8.04351L8.51 16.1315C7.68775 16.958 6.34657 17.117 5.44669 16.376C5.20632 16.1842 5.00869 15.9403 4.86744 15.661C4.72619 15.3818 4.6447 15.0739 4.62857 14.7586C4.61244 14.4433 4.66207 14.1281 4.77403 13.8348C4.88599 13.5414 5.05762 13.2769 5.27707 13.0595L15.1944 3.08301C15.9012 2.38264 16.8388 1.99215 17.8135 1.99215C18.7882 1.99215 19.7258 2.38264 20.4326 3.08301C20.7756 3.4222 21.0488 3.83076 21.2355 4.28375C21.4221 4.73674 21.5184 5.22467 21.5184 5.71776C21.5184 6.21086 21.4221 6.69879 21.2355 7.15178C21.0488 7.60477 20.7756 8.01332 20.4326 8.35251L10.4938 18.3515C8.57757 20.279 5.46681 20.591 3.37813 18.8555C1.16438 17.0255 0.842377 13.739 2.65938 11.51C2.76634 11.3772 2.88057 11.251 3.0015 11.132L11.3103 2.77401C11.3789 2.70617 11.4337 2.62442 11.471 2.53377C11.5084 2.44311 11.5277 2.34546 11.5277 2.24676C11.5277 2.14807 11.5084 2.05041 11.471 1.95976C11.4337 1.86911 11.3789 1.78736 11.3103 1.71951C11.1687 1.57918 10.9808 1.50094 10.7856 1.50094C10.5903 1.50094 10.4025 1.57918 10.2609 1.71951L1.95213 10.0775C1.33535 10.6885 0.844194 11.4241 0.508563 12.2395C0.172932 13.0549 -0.000152588 13.9331 -0.000152588 14.8205C-0.000152588 15.7079 0.172932 16.5861 0.508563 17.4015C0.844194 18.2169 1.33535 18.9525 1.95213 19.5635C5.09738 22.727 9.43 21.5285 11.5259 19.421L21.4806 9.40701C21.9608 8.93189 22.3432 8.35967 22.6046 7.72527C22.8659 7.09086 23.0007 6.40756 23.0007 5.71701C23.0007 5.02647 22.8659 4.34316 22.6046 3.70876C22.3432 3.07435 21.9608 2.50214 21.4806 2.02701C19.4551 -0.009987 16.1704 -0.00998664 14.145 2.02851Z" fill="#7A7A7C"/>
</svg>
