<svg width="26" height="28" viewBox="0 0 26 28" fill="none" xmlns="http://www.w3.org/2000/svg">
<path fill-rule="evenodd" clip-rule="evenodd" d="M11.68 0.5625H14.32C16.6175 0.5625 18.4375 0.5625 19.8613 0.75375C21.3263 0.95125 22.5125 1.36625 23.4487 2.30125C24.3837 3.2375 24.7988 4.42375 24.9963 5.88875C25.1875 7.31375 25.1875 9.1325 25.1875 11.43V16.57C25.1875 18.8675 25.1875 20.6875 24.9963 22.1113C24.7988 23.5763 24.3837 24.7625 23.4487 25.6987C22.5125 26.6337 21.3263 27.0488 19.8613 27.2463C18.4363 27.4375 16.6175 27.4375 14.32 27.4375H11.68C9.3825 27.4375 7.5625 27.4375 6.13875 27.2463C4.67375 27.0488 3.4875 26.6337 2.55125 25.6987C1.61625 24.7625 1.20125 23.5763 1.00375 22.1113C0.8125 20.6863 0.8125 18.8675 0.8125 16.57V11.43C0.8125 9.1325 0.8125 7.3125 1.00375 5.88875C1.20125 4.42375 1.61625 3.2375 2.55125 2.30125C3.4875 1.36625 4.67375 0.95125 6.13875 0.75375C7.56375 0.5625 9.3825 0.5625 11.68 0.5625ZM6.3875 2.6125C5.13 2.78125 4.405 3.09875 3.875 3.6275C3.3475 4.15625 3.03 4.88125 2.86125 6.13875C2.68875 7.42375 2.68625 9.11625 2.68625 11.5V16.5C2.68625 18.8837 2.68875 20.5775 2.86125 21.8625C3.03 23.1188 3.3475 23.8438 3.87625 24.3725C4.405 24.9013 5.13 25.2188 6.3875 25.3875C7.6725 25.56 9.365 25.5625 11.7487 25.5625H14.2487C16.6325 25.5625 18.3262 25.56 19.6112 25.3875C20.8675 25.2188 21.5925 24.9013 22.1213 24.3725C22.65 23.8438 22.9675 23.1187 23.1362 21.8612C23.3087 20.5775 23.3113 18.8837 23.3113 16.5V11.5C23.3113 9.11625 23.3087 7.42375 23.1362 6.1375C22.9675 4.88125 22.65 4.15625 22.1213 3.6275C21.5925 3.09875 20.8675 2.78125 19.61 2.6125C18.3263 2.44 16.6325 2.4375 14.2487 2.4375H11.7487C9.365 2.4375 7.67375 2.44 6.3875 2.6125ZM7.0625 11.5C7.0625 11.2514 7.16127 11.0129 7.33709 10.8371C7.5129 10.6613 7.75136 10.5625 8 10.5625H18C18.2486 10.5625 18.4871 10.6613 18.6629 10.8371C18.8387 11.0129 18.9375 11.2514 18.9375 11.5C18.9375 11.7486 18.8387 11.9871 18.6629 12.1629C18.4871 12.3387 18.2486 12.4375 18 12.4375H8C7.75136 12.4375 7.5129 12.3387 7.33709 12.1629C7.16127 11.9871 7.0625 11.7486 7.0625 11.5ZM7.0625 16.5C7.0625 16.2514 7.16127 16.0129 7.33709 15.8371C7.5129 15.6613 7.75136 15.5625 8 15.5625H14.25C14.4986 15.5625 14.7371 15.6613 14.9129 15.8371C15.0887 16.0129 15.1875 16.2514 15.1875 16.5C15.1875 16.7486 15.0887 16.9871 14.9129 17.1629C14.7371 17.3387 14.4986 17.4375 14.25 17.4375H8C7.75136 17.4375 7.5129 17.3387 7.33709 17.1629C7.16127 16.9871 7.0625 16.7486 7.0625 16.5Z" fill="black"/>
</svg>
