<svg width="31" height="31" viewBox="0 0 31 31" fill="none" xmlns="http://www.w3.org/2000/svg">
<path d="M20.3438 15.9922V26.3984C20.3438 27.8697 19.1903 29.0625 17.7433 29.0625H6.47852C5.02842 29.0625 3.875 27.8697 3.875 26.3984V10.4141C3.87913 9.70878 4.16113 9.03357 4.65985 8.53485C5.15857 8.03613 5.83378 7.75413 6.53906 7.75H12.2377C12.435 7.7503 12.6302 7.78986 12.812 7.86636C12.9938 7.94287 13.1586 8.0548 13.2967 8.19563L19.9054 14.9163C20.1866 15.2039 20.3439 15.5901 20.3438 15.9922Z" stroke="black" stroke-linejoin="round"/>
<path d="M12.1094 7.75V14.2891C12.1147 14.737 12.295 15.1651 12.6118 15.4819C12.9286 15.7987 13.3567 15.979 13.8047 15.9844H20.3438" stroke="black" stroke-linecap="round" stroke-linejoin="round"/>
<path d="M10.6562 7.75V4.60156C10.6604 3.89628 10.9424 3.22107 11.4411 2.72235C11.9398 2.22363 12.615 1.94163 13.3203 1.9375H19.0117C19.2101 1.93778 19.4064 1.97729 19.5894 2.05377C19.7724 2.13025 19.9384 2.24219 20.0779 2.38313L26.6866 9.10383C26.9676 9.38832 27.1251 9.77206 27.125 10.1719V20.5859C27.125 22.0572 25.9716 23.25 24.5245 23.25H20.8281" stroke="black" stroke-linejoin="round"/>
<path d="M18.8906 1.9375V8.47656C18.896 8.92453 19.0763 9.35264 19.3931 9.66942C19.7099 9.9862 20.138 10.1665 20.5859 10.1719H27.125" stroke="black" stroke-linecap="round" stroke-linejoin="round"/>
</svg>
