<svg width="29" height="29" viewBox="0 0 29 29" fill="none" xmlns="http://www.w3.org/2000/svg">
<path d="M1.58334 14.7635C1.58334 11.8069 1.58334 10.3292 2.25501 9.10472C2.92409 7.87893 4.14989 7.11943 6.60018 5.59784L9.18351 3.99489C11.7733 2.38676 13.0688 1.58334 14.5 1.58334C15.9312 1.58334 17.2254 2.38676 19.8165 3.99489L22.3998 5.59784C24.8501 7.11943 26.0759 7.87893 26.7463 9.10472C27.4167 10.3305 27.4167 11.8069 27.4167 14.7622V16.7281C27.4167 21.7656 27.4167 24.2857 25.9028 25.8512C24.389 27.4167 21.9542 27.4167 17.0833 27.4167H11.9167C7.0458 27.4167 4.60972 27.4167 3.09718 25.8512C1.58464 24.2857 1.58334 21.7669 1.58334 16.7281V14.7635Z" stroke="black" stroke-width="1.5"/>
</svg>
