<svg width="27" height="27" viewBox="0 0 27 27" fill="none" xmlns="http://www.w3.org/2000/svg">
<path d="M25.875 13.5C25.8789 15.9568 25.1482 18.3586 23.7768 20.397C22.6457 22.0841 21.1163 23.4666 19.3239 24.422C17.5315 25.3775 15.5312 25.8765 13.5 25.875C11.4688 25.8765 9.46855 25.3775 7.67611 24.422C5.88367 23.4666 4.3543 22.0841 3.22325 20.397C2.14625 18.7916 1.46037 16.9561 1.22057 15.0379C0.980776 13.1196 1.19374 11.1718 1.8424 9.35064C2.49106 7.5295 3.55737 5.88565 4.95584 4.55089C6.35432 3.21612 8.04606 2.22757 9.89545 1.66447C11.7448 1.10136 13.7004 0.97938 15.6055 1.30829C17.5105 1.63721 19.312 2.40787 20.8655 3.5585C22.419 4.70913 23.6813 6.20772 24.5512 7.93414C25.4212 9.66056 25.8746 11.5668 25.875 13.5Z" stroke="black" stroke-width="1.375"/>
<path d="M15.5625 9.375C15.5625 9.92201 15.3452 10.4466 14.9584 10.8334C14.5716 11.2202 14.047 11.4375 13.5 11.4375V12.8125C13.9514 12.8125 14.3984 12.7236 14.8155 12.5508C15.2326 12.3781 15.6115 12.1249 15.9307 11.8057C16.2499 11.4865 16.5031 11.1075 16.6759 10.6905C16.8486 10.2734 16.9375 9.82642 16.9375 9.375H15.5625ZM13.5 11.4375C12.953 11.4375 12.4284 11.2202 12.0416 10.8334C11.6548 10.4466 11.4375 9.92201 11.4375 9.375H10.0625C10.0625 9.82642 10.1514 10.2734 10.3242 10.6905C10.4969 11.1075 10.7501 11.4865 11.0693 11.8057C11.714 12.4503 12.5883 12.8125 13.5 12.8125V11.4375ZM11.4375 9.375C11.4375 8.82799 11.6548 8.30339 12.0416 7.91659C12.4284 7.5298 12.953 7.3125 13.5 7.3125V5.9375C12.5883 5.9375 11.714 6.29966 11.0693 6.94432C10.4247 7.58898 10.0625 8.46332 10.0625 9.375H11.4375ZM13.5 7.3125C14.047 7.3125 14.5716 7.5298 14.9584 7.91659C15.3452 8.30339 15.5625 8.82799 15.5625 9.375H16.9375C16.9375 8.46332 16.5754 7.58898 15.9307 6.94432C15.286 6.29966 14.4117 5.9375 13.5 5.9375V7.3125ZM4.10328 21.552L3.44328 21.3568L3.3374 21.7156L3.58078 22.0002L4.10328 21.552ZM22.8968 21.552L23.4193 22.0002L23.6627 21.7156L23.5554 21.3568L22.8968 21.552ZM9.37503 18.3125H17.625V16.9375H9.37503V18.3125ZM9.37503 16.9375C8.04245 16.9373 6.74542 17.3673 5.6769 18.1636C4.60838 18.9598 3.8241 20.0798 3.44328 21.3568L4.7619 21.7486C5.05832 20.7555 5.66742 19.8846 6.4986 19.2655C7.32978 18.6464 8.33861 18.3121 9.37503 18.3125V16.9375ZM13.5 25.1875C11.8133 25.1893 10.1462 24.8251 8.61386 24.1201C7.08152 23.415 5.7204 22.3859 4.6244 21.1038L3.58078 22.0002C4.80597 23.4327 6.32725 24.5823 8.03972 25.37C9.75219 26.1576 11.6151 26.5645 13.5 26.5625V25.1875ZM17.625 18.3125C18.6616 18.3122 19.6706 18.6467 20.5018 19.266C21.333 19.8854 21.942 20.7566 22.2382 21.75L23.5554 21.3568C23.1746 20.0798 22.3917 18.9598 21.3232 18.1636C20.2546 17.3673 18.9576 16.9373 17.625 16.9375V18.3125ZM22.3757 21.1038C21.2797 22.3859 19.9185 23.415 18.3862 24.1201C16.8538 24.8251 15.1868 25.1893 13.5 25.1875V26.5625C15.3849 26.5645 17.2479 26.1576 18.9603 25.37C20.6728 24.5823 22.1941 23.4327 23.4193 22.0002L22.3757 21.1038Z" fill="black"/>
</svg>
