<svg width="19" height="19" viewBox="0 0 19 19" fill="none" xmlns="http://www.w3.org/2000/svg">
<path d="M1.59998 5.5V3.5C1.59998 2.96957 1.81069 2.46086 2.18576 2.08579C2.56083 1.71071 3.06954 1.5 3.59998 1.5H5.59998M1.59998 13.5V15.5C1.59998 16.0304 1.81069 16.5391 2.18576 16.9142C2.56083 17.2893 3.06954 17.5 3.59998 17.5H5.59998M13.6 1.5H15.6C16.1304 1.5 16.6391 1.71071 17.0142 2.08579C17.3893 2.46086 17.6 2.96957 17.6 3.5V5.5M13.6 17.5H15.6C16.1304 17.5 16.6391 17.2893 17.0142 16.9142C17.3893 16.5391 17.6 16.0304 17.6 15.5V13.5M4.59998 9.5H14.6" stroke="white" stroke-width="2" stroke-linecap="round" stroke-linejoin="round"/>
</svg>
