<svg width="23" height="23" viewBox="0 0 23 23" fill="none" xmlns="http://www.w3.org/2000/svg">
<path d="M11.5419 15.1982C13.1297 15.1982 14.4169 13.911 14.4169 12.3232C14.4169 10.7354 13.1297 9.44818 11.5419 9.44818C9.95411 9.44818 8.66693 10.7354 8.66693 12.3232C8.66693 13.911 9.95411 15.1982 11.5419 15.1982Z" stroke="#3083FD" stroke-width="1.4375"/>
<path d="M3.55039 11.0199C4.00369 11.3036 4.29502 11.7885 4.29502 12.3233C4.29502 12.858 4.00369 13.3429 3.55039 13.6266C3.24277 13.8211 3.04344 13.9754 2.90256 14.1594C2.74931 14.3592 2.63692 14.5872 2.57181 14.8304C2.50669 15.0736 2.49013 15.3272 2.52306 15.5768C2.57289 15.9544 2.79619 16.3416 3.24181 17.1149C3.68935 17.8883 3.91264 18.2745 4.21452 18.5074C4.41427 18.6606 4.64226 18.773 4.88545 18.8381C5.12865 18.9033 5.38229 18.9198 5.63189 18.8869C5.86189 18.8562 6.09477 18.7623 6.41677 18.5917C6.64721 18.4656 6.90593 18.4001 7.16861 18.4015C7.4313 18.4028 7.68934 18.4709 7.91848 18.5994C8.38135 18.8677 8.65639 19.3613 8.67556 19.896C8.68898 20.2602 8.72348 20.5093 8.8126 20.7231C8.90893 20.9558 9.05017 21.1672 9.22825 21.3453C9.40634 21.5234 9.61778 21.6646 9.85048 21.7609C10.2022 21.9066 10.6488 21.9066 11.5419 21.9066C12.4351 21.9066 12.8817 21.9066 13.2334 21.7609C13.4661 21.6646 13.6775 21.5234 13.8556 21.3453C14.0337 21.1672 14.1749 20.9558 14.2713 20.7231C14.3594 20.5093 14.3949 20.2602 14.4083 19.896C14.4275 19.3613 14.7025 18.8668 15.1654 18.5994C15.3945 18.4709 15.6526 18.4028 15.9153 18.4015C16.1779 18.4001 16.4367 18.4656 16.6671 18.5917C16.9891 18.7623 17.2229 18.8562 17.4529 18.8869C17.9567 18.9531 18.4662 18.8166 18.8694 18.5074C19.1712 18.2755 19.3945 17.8883 19.8411 17.1149C20.0404 16.7699 20.1947 16.5026 20.3097 16.2783M19.5335 13.6276C19.3091 13.4912 19.1231 13.3 18.9928 13.0721C18.8626 12.8441 18.7924 12.5868 18.7889 12.3242C18.7889 11.7885 19.0802 11.3036 19.5335 11.019C19.8411 10.8254 20.0395 10.6711 20.1813 10.4871C20.3346 10.2873 20.4469 10.0594 20.5121 9.81616C20.5772 9.57296 20.5937 9.31932 20.5608 9.06972C20.511 8.69214 20.2877 8.30497 19.8421 7.5316C19.3945 6.75822 19.1712 6.37201 18.8694 6.13914C18.6696 5.98589 18.4416 5.8735 18.1984 5.80838C17.9552 5.74327 17.7016 5.7267 17.452 5.75964C17.222 5.7903 16.9891 5.88422 16.6661 6.0548C16.4358 6.18074 16.1773 6.24611 15.9148 6.24477C15.6523 6.24343 15.3944 6.17542 15.1654 6.04714C14.9397 5.91288 14.7518 5.72345 14.6193 5.49664C14.4869 5.26983 14.4143 5.01309 14.4083 4.75051C14.3949 4.38635 14.3604 4.13718 14.2713 3.92347C14.1749 3.69077 14.0337 3.47933 13.8556 3.30125C13.6775 3.12316 13.4661 2.98192 13.2334 2.8856C12.8817 2.73993 12.4351 2.73993 11.5419 2.73993C10.6488 2.73993 10.2022 2.73993 9.85048 2.8856C9.61778 2.98192 9.40634 3.12316 9.22825 3.30125C9.05017 3.47933 8.90893 3.69077 8.8126 3.92347C8.72444 4.13718 8.68898 4.38635 8.67556 4.75051C8.66959 5.01309 8.59698 5.26983 8.46455 5.49664C8.33212 5.72345 8.14421 5.91288 7.91848 6.04714C7.68934 6.17559 7.4313 6.24369 7.16861 6.24503C6.90593 6.24638 6.64721 6.18092 6.41677 6.0548C6.09477 5.88422 5.86094 5.7903 5.63094 5.75964C5.12716 5.69339 4.61769 5.82989 4.21452 6.13914C3.9136 6.37201 3.68935 6.75822 3.24277 7.5316C3.04344 7.8766 2.88914 8.14397 2.77414 8.36822" stroke="#3083FD" stroke-width="1.4375" stroke-linecap="round"/>
</svg>
